<svg width="24" height="24" viewBox="0 0 24 24" fill="none" xmlns="http://www.w3.org/2000/svg">
<circle cx="12" cy="12" r="12" fill="#EEEEEE"/>
<path d="M11.9994 7.3949C11.49 7.3949 10.9919 7.54485 10.5683 7.8258C10.1447 8.10676 9.81452 8.50608 9.61955 8.97329C9.42458 9.44049 9.37356 9.95459 9.47296 10.4506C9.57235 10.9465 9.81769 11.4021 10.178 11.7597C10.5382 12.1173 10.9972 12.3608 11.4969 12.4595C11.9966 12.5581 12.5145 12.5075 12.9852 12.314C13.4559 12.1205 13.8582 11.7927 14.1413 11.3723C14.4244 10.9518 14.5754 10.4574 14.5754 9.95175C14.5747 9.27387 14.303 8.62397 13.8201 8.14463C13.3372 7.6653 12.6824 7.39567 11.9994 7.3949ZM11.9994 11.2302C11.7447 11.2302 11.4957 11.1552 11.2839 11.0147C11.0721 10.8742 10.907 10.6746 10.8095 10.441C10.712 10.2074 10.6865 9.95033 10.7362 9.70234C10.7859 9.45435 10.9086 9.22656 11.0887 9.04777C11.2688 8.86898 11.4983 8.74722 11.7482 8.69789C11.998 8.64856 12.257 8.67388 12.4923 8.77064C12.7277 8.8674 12.9288 9.03126 13.0704 9.24149C13.2119 9.45173 13.2874 9.6989 13.2874 9.95175C13.287 10.2907 13.1512 10.6156 12.9098 10.8553C12.6683 11.095 12.3409 11.2298 11.9994 11.2302Z" fill="#585858"/>
<path d="M16.9497 5.0345C15.7258 3.82001 14.092 3.09856 12.3638 3.00938C10.6355 2.9202 8.93518 3.46961 7.59102 4.55159C6.24685 5.63356 5.35412 7.1714 5.08511 8.86828C4.8161 10.5652 5.18989 12.3008 6.13433 13.7402L11.0008 21.1556C11.1091 21.3206 11.2572 21.4562 11.4316 21.5501C11.606 21.6439 11.8013 21.693 11.9997 21.693C12.1981 21.693 12.3934 21.6439 12.5678 21.5501C12.7422 21.4562 12.8903 21.3206 12.9986 21.1556L17.8652 13.7402C18.7416 12.405 19.1288 10.8113 18.9622 9.22628C18.7955 7.6413 18.0849 6.16135 16.9497 5.0345ZM16.7861 13.0424L11.9997 20.3354L7.21334 13.0424C5.74825 10.81 6.06248 7.82247 7.9605 5.93847C8.49093 5.41196 9.12065 4.99431 9.8137 4.70937C10.5068 4.42442 11.2496 4.27776 11.9997 4.27776C12.7499 4.27776 13.4927 4.42442 14.1857 4.70937C14.8788 4.99431 15.5085 5.41196 16.0389 5.93847C17.937 7.82247 18.2511 10.81 16.7861 13.0424Z" fill="#585858"/>
</svg>
